<svg xmlns="http://www.w3.org/2000/svg" xmlns:xlink="http://www.w3.org/1999/xlink" width="25" height="24"
  viewBox="0 0 25 24">
  <defs>
    <path
      d="M4.875 19.628c.142.16.342.25.55.247a.684.684 0 0 0 .394-.116l5.11-3.18v4.12c0 .455.353.824.787.824h1.573a.769.769 0 0 0 .786-.51l3.145-8.16 5.206-3.18c.688-.424 1.076-1.23.99-2.061-.087-.86-.677-1.57-1.478-1.78a5.287 5.287 0 0 0-4.718.593l-3.6 2.555L8.9 6.689a1.17 1.17 0 0 0-.33 0H6.998c-.3 0-.575.178-.707.461a.874.874 0 0 0 .094.874l2.972 3.94L5.19 14.93H2.28a.784.784 0 0 0-.786.511.801.801 0 0 0 .173.89l3.208 3.297zm7.863.247h-.235v-4.187l2.437-1.483-2.202 5.67zM8.76 8.502l3.318 1.648-1.384.973L8.76 8.502zm-3.334 8.076a.716.716 0 0 0 .44-.148l12.235-8.62a3.837 3.837 0 0 1 3.35-.429.49.49 0 0 1 .314.412.485.485 0 0 1-.22.445L5.552 18.012l-1.369-1.434h1.243z"
      id="a" />
  </defs>
  <g transform="translate(-1.393 -.526)" fill="none" fill-rule="evenodd">
    <mask id="b" fill="#fff">
      <use xlink:href="#a" />
    </mask>
    <use fill="currentColor" fill-rule="nonzero" transform="rotate(60 12.428 13.526)" xlink:href="#a" />
  </g>
</svg>