<svg xmlns="http://www.w3.org/2000/svg" viewBox="0 0 32 32">
  <path fill="currentColor" d="M14.688 10.688c-.75 0-1.375-.625-1.375-1.375 0-.688.625-1.313 1.375-1.313.688 0 1.313.625 1.313 1.313 0 .75-.625 1.375-1.313 1.375zm5.312 0c-.75 0-1.313-.625-1.313-1.375C18.687 8.625 19.25 8 20 8s1.313.625 1.313 1.313c0 .75-.563 1.375-1.313 1.375zm-2.687 4c-.688 0-1.313-.625-1.313-1.375 0-.688.625-1.313 1.313-1.313.75 0 1.375.625 1.375 1.313 0 .75-.625 1.375-1.375 1.375zm-5.313 0c-.75 0-1.313-.625-1.313-1.375 0-.688.563-1.313 1.313-1.313s1.313.625 1.313 1.313c0 .75-.563 1.375-1.313 1.375zm10.688 0c-.75 0-1.375-.625-1.375-1.375 0-.688.625-1.313 1.375-1.313.688 0 1.313.625 1.313 1.313 0 .75-.625 1.375-1.313 1.375zM32 17.313v2.688h-2.688v1.313c0 2.563-1.625 4.813-4 5.375l1.375 2.625h-2.688l-1.313-2.625H9.311l-1.313 2.625H5.31l1.375-2.625c-2.375-.563-4-2.813-4-5.375v-1.313H-.003v-2.688h26.688V6.688c0-.75-.625-1.375-1.375-1.375h-6.625v1.375h-2.688v-4h9.313c2.25 0 4 1.75 4 4v10.625zm-5.312 4V20H5.313v1.313c0 1.5 1.188 2.688 2.688 2.688h16c1.5 0 2.688-1.188 2.688-2.688z" />
</svg>
