<svg xmlns="http://www.w3.org/2000/svg" viewBox="0 0 32 32">
  <path fill="currentColor" d="M28.625 15.5v-3.688h-8.438V15.5c1.063-.188 2.438-.313 4.25-.313 1.75 0 3.125.125 4.188.313zm1.688.5c1.688.75 1.688 1.688 1.688 1.688v6.75h-1.688V22.75H18.5v1.688h-1.688v-6.75s0-.938 1.688-1.688V7.562h1.688v2.563h8.438V7.562h1.688zm0 5.063V18.5s0-1.688-5.875-1.688C18.5 16.812 18.5 18.5 18.5 18.5v2.563zm-18.5-5.563v-3.688H3.375V15.5c1.063-.188 2.438-.313 4.188-.313 1.813 0 3.188.125 4.25.313zm1.687.5c1.688.75 1.688 1.688 1.688 1.688v6.75H13.5V22.75H1.687v1.688H-.001v-6.75s0-.938 1.688-1.688V7.562h1.688v2.563h8.438V7.562h1.688zm0 5.063V18.5s0-1.688-5.938-1.688c-5.875 0-5.875 1.688-5.875 1.688v2.563z" />
</svg>
