<svg xmlns="http://www.w3.org/2000/svg" xmlns:xlink="http://www.w3.org/1999/xlink" width="24" height="24"
  viewBox="0 0 24 24">
  <defs>
    <path
      d="M7 22a3 3 0 0 1-3-3V5a3 3 0 0 1 3-3h12a1 1 0 0 1 1 1v14a1 1 0 0 1-.883.993L19 18a1 1 0 0 0-.117 1.993L19 20a1 1 0 0 1 .993.883L20 21a1 1 0 0 1-.883.993L19 22H7zm9.17-4H7a1 1 0 0 0 0 2h9.171a3.004 3.004 0 0 1-.001-2zM18 4H7a1 1 0 0 0-1 1v11.18c.32-.116.659-.177 1-.18h11V4z"
      id="a" />
  </defs>
  <g fill="none" fill-rule="evenodd">
    <mask id="b" fill="#fff">
      <use xlink:href="#a" />
    </mask>
    <use fill="currentColor" fill-rule="nonzero" xlink:href="#a" />
  </g>
</svg>