<svg xmlns="http://www.w3.org/2000/svg" width="22" height="21" viewBox="0 0 22 21">
  <path
    d="M16.63 1v1.75h2.75c1.012 0 1.834.783 1.834 1.75v13.124c0 .966-.822 1.75-1.834 1.75H2.88c-1.012 0-1.833-.784-1.833-1.75V4.5c0-.966.821-1.75 1.833-1.75h1.834V4.5H2.88v13.125h16.5V4.5h-2.75v1.75h-1.833V1h1.833zM8.38 12.373v3.5H4.714v-3.5H8.38zm4.584 0v3.5H9.297v-3.5h3.667zM8.38 8v3.5H4.714V8H8.38zm4.584 0v3.5H9.297V8h3.667zm4.583 0v3.5H13.88V8h3.667zM7.464 1v1.75h6.416V4.5H7.464v1.75H5.63V1h1.834z"
    fill="currentColor" fill-rule="nonzero" />
</svg>