<svg xmlns="http://www.w3.org/2000/svg" xmlns:xlink="http://www.w3.org/1999/xlink" width="25" height="25"
  viewBox="0 0 25 25">
  <defs>
    <path
      d="M12 1c6.075 0 11 4.925 11 11s-4.925 11-11 11c-1.8 0-3.499-.432-4.999-1.199l-4.393.877a1 1 0 0 1-1.157-1.254l1.088-3.809A10.954 10.954 0 0 1 1 12C1 5.925 5.925 1 12 1zm0 2a9 9 0 0 0-9 9c0 1.642.438 3.215 1.258 4.593.282.473.356 1.042.204 1.572l-.638 2.231 2.786-.556c.442-.088.9-.025 1.301.18A8.955 8.955 0 0 0 12 21a9 9 0 0 0 0-18zm1 3v2h-2V6h2zm0 4v8h-2v-8h2z"
      id="a" />
  </defs>
  <g transform="translate(.5 .469)" fill="none" fill-rule="evenodd">
    <mask id="b" fill="#fff">
      <use xlink:href="#a" />
    </mask>
    <use fill="#004D9D" fill-rule="nonzero" xlink:href="#a" />
    <path fill="currentColor" mask="url(#b)" d="M0 0h24v24H0z" />
  </g>
</svg>