<svg xmlns="http://www.w3.org/2000/svg" xmlns:xlink="http://www.w3.org/1999/xlink" width="24" height="24"
  viewBox="0 0 24 24">
  <defs>
    <path
      d="M16.21 18.076c.048.01.06.016.074.016l1.247.002c.704 0 1.01-.293 1.01-.97V4.391c0-.671-.301-.964-.991-.965h-5.051c-1.114 0-2.227-.002-3.34.001-.56.002-.881.305-.913.828-.011.186.043.242.24.242 1.771-.008 3.542-.01 5.313 0 .29.002.594.033.868.12.967.309 1.542 1.135 1.543 2.17V18.075zm-11.75-4.84c0 2.148-.002 4.296 0 6.444 0 .563.316.893.88.893 2.844.004 5.688.004 8.533 0 .423 0 .729-.203.83-.55.037-.128.046-.269.046-.404.002-4.251.002-8.503.002-12.754 0-.655-.31-.958-.982-.958H5.458c-.69 0-.999.298-.999.961v6.367zM8.802 2h9.177c.142.036.286.066.425.108.98.302 1.59 1.133 1.592 2.177.002 3.248 0 6.496 0 9.744 0 1.12.01 2.24-.006 3.36-.014 1.01-.79 1.91-1.821 2.066-.519.078-1.056.04-1.584.054-.119.003-.237 0-.376 0v.218c-.012 1.322-.993 2.27-2.357 2.272-2.83.002-5.66.002-8.49-.002-.2 0-.405-.016-.598-.061-1.072-.247-1.76-1.107-1.762-2.204-.003-2.584 0-5.168 0-7.753 0-1.777-.009-3.554.005-5.33a2.145 2.145 0 0 1 1.846-2.106c.545-.08 1.11-.038 1.665-.05.085-.002.17 0 .243 0 .015-.042.023-.054.024-.066.002-.085.002-.17.005-.254.032-.793.386-1.42 1.083-1.828.28-.164.618-.233.929-.345z"
      id="a" />
  </defs>
  <g fill="none" fill-rule="evenodd">
    <mask id="b" fill="#fff">
      <use xlink:href="#a" />
    </mask>
    <use stroke="currentColor" stroke-width=".2" fill="currentColor" xlink:href="#a" />
  </g>
</svg>