<svg xmlns="http://www.w3.org/2000/svg" xmlns:xlink="http://www.w3.org/1999/xlink" width="25" height="24"
  viewBox="0 0 25 24">
  <defs>
    <path
      d="M3.447 14.101c.142.16.342.25.55.248a.684.684 0 0 0 .394-.116l5.11-3.18v4.12c0 .455.353.824.787.824h1.573a.769.769 0 0 0 .786-.511l3.145-8.159 5.206-3.181c.688-.423 1.075-1.23.99-2.06-.087-.86-.678-1.571-1.478-1.78a5.287 5.287 0 0 0-4.718.593l-3.601 2.555-4.718-2.291a1.17 1.17 0 0 0-.33 0H5.57c-.3-.001-.575.178-.708.461a.874.874 0 0 0 .095.874l2.972 3.939-4.167 2.967H.852a.784.784 0 0 0-.786.51.801.801 0 0 0 .173.89l3.208 3.297zm7.863.248h-.236v-4.187l2.438-1.483-2.202 5.67zM7.331 2.976l3.319 1.648-1.384.972-1.935-2.62zm-3.333 8.076a.716.716 0 0 0 .44-.148l12.235-8.62a3.837 3.837 0 0 1 3.35-.43.49.49 0 0 1 .314.413.485.485 0 0 1-.22.445L4.123 12.486l-1.368-1.434h1.243z"
      id="a" />
  </defs>
  <g transform="translate(1.75 5)" fill="none" fill-rule="evenodd">
    <mask id="b" fill="#fff">
      <use xlink:href="#a" />
    </mask>
    <use fill="#999" fill-rule="nonzero" xlink:href="#a" />
    <path fill="currentColor" mask="url(#b)" d="M-1-5h24v24H-1z" />
  </g>
</svg>