<svg xmlns="http://www.w3.org/2000/svg" viewBox="0 0 25 25">
	<path fill="currentColor" d="M20.5,9.5c0-4.1-3.6-7.5-8-7.5s-8,3.4-8,7.5c0,2.6,1.4,4.9,3.5,6.2l2.1,4.3H9.5l1,3h4l1-3h-0.7l2.1-4.3
		C19.1,14.4,20.5,12.1,20.5,9.5z M18.5,9.5c0,1.9-1.1,3.6-2.7,4.6c0.3-1.4,0.5-2.9,0.5-4.6s-0.2-3.2-0.5-4.6
		C17.4,5.9,18.5,7.6,18.5,9.5z M14.1,4.2c0.4,1.5,0.7,3.3,0.7,5.3c0,2-0.2,3.8-0.7,5.3c-0.5,0.1-1,0.2-1.6,0.2s-1.1-0.1-1.6-0.2
		c-0.4-1.5-0.7-3.3-0.7-5.3c0-2,0.2-3.8,0.7-5.3C11.4,4.1,12,4,12.5,4C13,4,13.6,4.1,14.1,4.2z M6.5,9.5c0-1.9,1.1-3.6,2.7-4.6
		c-0.3,1.4-0.5,3-0.5,4.6c0,1.7,0.2,3.2,0.5,4.6C7.6,13.1,6.5,11.4,6.5,9.5z M13.2,20h-1.3l-1.7-3.3c0.7,0.2,1.5,0.3,2.3,0.3
		c0.8,0,1.6-0.1,2.3-0.3L13.2,20z" />
</svg>
