<svg xmlns="http://www.w3.org/2000/svg" viewBox="0 0 24 24">
	<path fill="currentColor" d="M11.7,5c6-0.2,9.5,5.4,10.1,6.5c0.2,0.3,0.2,0.7,0,1C21,14,17.8,18.9,12.3,19H12c-5.9,0-9.3-5.4-9.9-6.5
		c-0.2-0.3-0.2-0.7,0-1C3,10,6.2,5.1,11.7,5z M12.1,7l-0.3,0c-4,0.1-6.6,3.4-7.6,5c0.9,1.4,3.7,5.1,8,5c4-0.1,6.6-3.4,7.6-5
		c-0.9-1.4-3.7-5.1-8-5L12.1,7z M12,8.5c1.9,0,3.5,1.6,3.5,3.5s-1.6,3.5-3.5,3.5S8.5,13.9,8.5,12S10.1,8.5,12,8.5z M12,10.5
		c-0.8,0-1.5,0.7-1.5,1.5s0.7,1.5,1.5,1.5s1.5-0.7,1.5-1.5S12.8,10.5,12,10.5z" />
</svg>
