<svg xmlns="http://www.w3.org/2000/svg" viewBox="0 0 24 24">
	<path fill="currentColor" d="M3.3,3.3c0.4-0.4,1-0.4,1.4,0l16,16c0.2,0.2,0.3,0.4,0.3,0.7c0,0.3-0.1,0.5-0.3,0.7C20.5,20.9,20.3,21,20,21
		c-0.3,0-0.5-0.1-0.7-0.3l-5.6-5.6c-1.4,0.7-3,0.5-4.1-0.6s-1.3-2.8-0.6-4.1L3.3,4.7C2.9,4.3,2.9,3.7,3.3,3.3z M5,7.9l1.5,1.4
		C5.6,10.1,4.8,11,4.2,12c0.9,1.4,3.7,5.1,8,5c0.6,0,1.1-0.1,1.7-0.2l1.6,1.6c-1,0.4-2.1,0.6-3.2,0.7H12c-5.9,0-9.3-5.4-9.9-6.5
		c-0.2-0.3-0.2-0.7,0-1C2.9,10.2,3.9,8.9,5,7.9z M11.7,5c6-0.2,9.5,5.4,10.1,6.5c0.2,0.3,0.2,0.7,0,1c-0.8,1.3-1.8,2.6-2.9,3.6
		l-1.5-1.4c0.9-0.8,1.6-1.7,2.3-2.7c-0.9-1.4-3.7-5.1-8-5c-0.6,0-1.1,0.1-1.7,0.2L8.5,5.7C9.5,5.3,10.6,5,11.7,5z M10.5,11.9
		L10.5,11.9c0,0.9,0.7,1.6,1.5,1.6l0.1,0L10.5,11.9z" />
</svg>
