<svg xmlns="http://www.w3.org/2000/svg" viewBox="0 0 24 24">
  <path fill="currentColor" fill-rule="evenodd" d="M16 18l.237.007c.696.04 1.25.264 1.873.68l.695.48c.851.569 1.688.833 3.195.833v2c-1.91 0-3.131-.386-4.305-1.168-.147-.098-.605-.422-.694-.481l-.14-.09C16.547 20.069 16.32 20 16 20c-.5 0-.714.128-1.293.707l-.17.166C13.708 21.673 13.094 22 12 22c-1.166 0-1.786-.372-2.707-1.293l-.128-.126C8.68 20.11 8.462 20 8 20c-.367 0-.61.09-1 .35l-.695.482C5.13 21.614 3.91 22 2 22v-2c1.507 0 2.344-.264 3.195-.832l.695-.482C6.583 18.225 7.189 18 8 18c.044 0 .085.001.124.003 1.088.025 1.696.403 2.583 1.29l.128.126c.486.472.703.581 1.165.581.5 0 .714-.128 1.293-.707l.17-.166C14.292 18.327 14.906 18 16 18l-.112.002L16 18zM14 2v2h4a1 1 0 011 1v4.555l1.124.25c.498.111.833.58.777 1.087l-.767 6.899a4.55 4.55 0 01-1.33-.623l-.694-.482C17.417 16.225 16.811 16 16 16c-1.093 0-1.707.327-2.538 1.127l-.17.166c-.578.58-.791.707-1.292.707-.462 0-.68-.109-1.165-.581l-.128-.126C9.787 16.373 9.167 16 8 16c-.811 0-1.417.225-2.11.686l-.695.482c-.419.28-.835.485-1.329.623l-.767-6.9a1.001 1.001 0 01.777-1.086L5 9.555V5a1 1 0 011-1h4V2h4zm3 4H7v3.111L12 8l5 1.111V6z" />
</svg>
