<svg xmlns="http://www.w3.org/2000/svg" viewBox="0 0 24 24">
  <path fill="currentColor" d="M8.5 12c2.4 0 4.23.74 5.49 2.18.88-.78 2.05-1.18 3.51-1.18 3.62 0 5.5 2.5 5.5 7v1h-7v1H1v-1c0-5.84 2.56-9 7.5-9zm0 2c-3.46 0-5.24 1.88-5.47 6h10.94l-.02-.28C13.65 15.79 11.88 14 8.5 14zm9 1c-1.04 0-1.85.29-2.42.91.4.89.67 1.92.81 3.09h5.08l-.02-.26c-.26-2.6-1.38-3.74-3.45-3.74zm0-10C19.43 5 21 6.57 21 8.5S19.43 12 17.5 12 14 10.43 14 8.5 15.57 5 17.5 5zm-9-3a4.5 4.5 0 010 9C6.02 11 4 8.98 4 6.5S6.01 2 8.5 2zm9 5c-.83 0-1.5.67-1.5 1.5s.67 1.5 1.5 1.5S19 9.33 19 8.5 18.33 7 17.5 7zm-9-3a2.5 2.5 0 000 5 2.5 2.5 0 000-5z" />
</svg>