<svg xmlns="http://www.w3.org/2000/svg" viewBox="0 0 25 25">
	<path fill="currentColor" d="M11.5,2.5v2c-0.7,0-1.4,0.1-2,0.3v3.7h2v2h-2v4h4v-2h2v2h3.7c0.2-0.6,0.3-1.3,0.3-2h2c0,5.5-4.5,10-10,10
		c-5.5,0-10-4.5-10-10S6,2.5,11.5,2.5z M13.5,16.5h-4v3.7c0.6,0.2,1.3,0.3,2,0.3c0.7,0,1.4-0.1,2-0.3V16.5z M7.5,16.5H4.6
		c0.7,1.2,1.7,2.2,2.9,2.9V16.5z M18.4,16.5h-2.9v2.9C16.7,18.7,17.7,17.7,18.4,16.5z M7.5,10.5H3.8c-0.2,0.6-0.3,1.3-0.3,2
		s0.1,1.4,0.3,2h3.7V10.5z M16,2.6l3.3,2.1l2.8-1.2c0.5-0.2,1.1,0,1.3,0.5c0.2,0.5,0,1.1-0.5,1.3l-2.7,1.2l-2.2,4l-1.8,0.9l1.5-4
		l-2.2,1l-4-2l1.6-0.9l2.1,0.9l2.4-1.1h-0.1l-3.1-2L16,2.6z M7.5,5.6C6.3,6.3,5.3,7.3,4.6,8.5h2.9V5.6z" />
</svg>
