<svg xmlns="http://www.w3.org/2000/svg" width="25" height="24" viewBox="0 0 25 24">
  <g fill="none" fill-rule="evenodd">
    <g fill="currentColor" fill-rule="nonzero">
      <path
        d="M5.708 9.607H3.8V20.81c0 .527.427.954.954.954h5.254l.11-.007a.954.954 0 0 0 .843-.947v-4.183h3.041v4.183c0 .527.428.954.955.954h5.277a.954.954 0 0 0 .953-.954V9.607H19.28v10.249h-3.37v-4.182a.954.954 0 0 0-.953-.954h-4.95l-.11.006a.954.954 0 0 0-.843.948v4.182H5.706V9.607z" />
      <path
        d="M11.849 2.001 1.274 11.716l1.29 1.405 9.924-9.117 9.557 8.942.037-.041.086.104.182-.037.044-.033.97-1.038.161-.182-10.38-9.712a.954.954 0 0 0-1.296-.006z" />
    </g>
  </g>
</svg>