<svg xmlns="http://www.w3.org/2000/svg" viewBox="0 0 24 24">
  <path fill="currentColor" fill-rule="evenodd" clip-rule="evenodd" d="M15.23 3.6l.05.1c.6 1.16 1.08 2.63 1.38 4.3h3.41c-1-2.01-2.73-3.59-4.84-4.4zM12 3c-.39 0-1.07.64-1.71 2.05-.39.84-.7 1.84-.91 2.95h5.25c-.22-1.11-.53-2.11-.91-2.95-.61-1.33-1.25-1.98-1.65-2.04L12 3zm-3.23.59l-.04.02C6.64 4.43 4.93 6 3.94 8h3.41c.3-1.72.79-3.23 1.42-4.41zM20.78 10h-3.86c.05.65.08 1.32.08 2 0 .68-.03 1.35-.08 2h3.86c.15-.64.22-1.31.22-2s-.08-1.36-.22-2zm-5.87 0H9.09c-.06.65-.09 1.32-.09 2 0 .68.03 1.35.09 2h5.82c.06-.65.09-1.32.09-2 0-.68-.03-1.35-.09-2zm-7.83 0H3.22c-.14.64-.22 1.31-.22 2s.08 1.36.22 2h3.86c-.05-.65-.08-1.32-.08-2 0-.68.03-1.35.08-2zm12.98 6h-3.4c-.31 1.72-.8 3.23-1.43 4.4a9.012 9.012 0 004.83-4.4zM7.34 16h-3.4c1 2.01 2.73 3.59 4.84 4.4-.64-1.17-1.13-2.68-1.44-4.4zm7.28 0H9.38c.22 1.11.53 2.11.91 2.95C10.93 20.36 11.61 21 12 21s1.07-.64 1.71-2.05c.39-.84.7-1.84.91-2.95zM12 1c6.08 0 11 4.92 11 11s-4.92 11-11 11S1 18.08 1 12 5.92 1 12 1z" />
</svg>