<svg xmlns="http://www.w3.org/2000/svg" viewBox="0 0 24 24">
	<path fill="currentColor" d="M12,22c1.1,0,2-0.9,2-2h-4C10,21.1,10.9,22,12,22z M12,2c3.4,0,6.9,3.5,7,6.7v3.6c0,0,2,1.2,2,2.7c0,2-1.3,3-3,3H6
		c-1.6,0-3-1-3-3v-0.5c0-0.6,0.4-1.2,0.9-1.5L5,12.3V8.7C5.1,5.5,8.6,2,12,2z M12,4C9.7,4,7.1,6.6,7,8.7v4.8l-1,0.6l-1.1,0.7
		C5,14.6,5,14.7,5,14.5V15c0,0.7,0.3,1,1,1h12c0.7,0,1-0.2,1-1c0,0-0.1-0.2-0.4-0.5c-0.2-0.2-0.5-0.4-0.6-0.5l-1-0.6v-1.1l0-3.6
		C16.9,6.6,14.3,4,12,4z" />
	<circle fill="#DE5151" cx="4.6" cy="11" r="3.5" />
</svg>
