<svg xmlns="http://www.w3.org/2000/svg" viewBox="0 0 24 24">
  <path fill="currentColor" fill-rule="evenodd" d="M18 4c-.617 0-1.21.139-1.747.402A5 5 0 0012 2a5 5 0 00-4.253 2.402A4.004 4.004 0 002 8a4.01 4.01 0 003 3.874V21a1 1 0 001 1h12a1 1 0 001-1v-9.126A4.01 4.01 0 0022 8c0-2.206-1.794-4-4-4zM7 20v-1h10v1H7zm11-10a1 1 0 00-1 1v6h-1v-3h-2v3h-1v-4h-2v4h-1v-3H8v3H7v-6a1 1 0 00-1-1c-1.103 0-2-.897-2-2 0-1.104.897-2 2-2 .546 0 1.058.22 1.44.621a1.002 1.002 0 001.687-.422A3 3 0 0112 4c1.331 0 2.512.904 2.874 2.199a1.002 1.002 0 001.687.422A1.97 1.97 0 0118 6c1.103 0 2 .896 2 2 0 1.103-.897 2-2 2z" />
</svg>
