<svg xmlns="http://www.w3.org/2000/svg" xmlns:xlink="http://www.w3.org/1999/xlink" width="24px" height="24px"
  viewBox="0 0 24 24" version="1.1">
  <title>Icons/24/share</title>
  <defs>
    <path
      d="M17.5138892,0 C19.7460402,0 21.555556,1.790861 21.555556,4 C21.555556,6.209139 19.7460402,8 17.5138892,8 C16.4686178,8 15.5160243,7.6072891 14.7985239,6.96281411 L7.97547335,11.078138 C8.0460107,11.3740874 8.0833335,11.68273 8.0833335,12 C8.0833335,12.4871377 7.99534626,12.9539366 7.83424226,13.3856798 L14.459291,17.3805875 C15.2003465,16.5348758 16.2940037,16 17.5138892,16 C19.7460402,16 21.555556,17.790861 21.555556,20 C21.555556,22.209139 19.7460402,24 17.5138892,24 C15.2817383,24 13.4722225,22.209139 13.4722225,20 C13.4722225,19.9028128 13.4757246,19.8064352 13.4826108,19.710984 L6.25050825,15.3503401 C5.61562246,15.7611636 4.85682676,16 4.04166675,16 C1.80951584,16 0,14.209139 0,12 C0,9.790861 1.80951584,8 4.04166675,8 C5.03995368,8 5.95370704,8.35819997 6.65886602,8.95181807 L13.5519565,4.79454935 C13.4996639,4.53775164 13.4722225,4.27204742 13.4722225,4 C13.4722225,1.790861 15.2817383,0 17.5138892,0 Z M17.5138892,18.5 C16.6566842,18.5 15.9722225,19.1774054 15.9722225,20 C15.9722225,20.8225946 16.6566842,21.5 17.5138892,21.5 C18.3710943,21.5 19.055556,20.8225946 19.055556,20 C19.055556,19.1774054 18.3710943,18.5 17.5138892,18.5 Z M4.04166675,10.5 C3.18446168,10.5 2.5,11.1774054 2.5,12 C2.5,12.8225946 3.18446168,13.5 4.04166675,13.5 C4.89887182,13.5 5.5833335,12.8225946 5.5833335,12 C5.5833335,11.1774054 4.89887182,10.5 4.04166675,10.5 Z M17.5138892,2.5 C16.6566842,2.5 15.9722225,3.17740536 15.9722225,4 C15.9722225,4.82259464 16.6566842,5.5 17.5138892,5.5 C18.3710943,5.5 19.055556,4.82259464 19.055556,4 C19.055556,3.17740536 18.3710943,2.5 17.5138892,2.5 Z"
      id="path-1" />
  </defs>
  <g id="Icons/24/share" stroke="none" stroke-width="1" fill="none" fill-rule="evenodd">
    <g id="Fill-1" transform="translate(1.000000, 0.000000)">
      <mask id="mask-2" fill="white">
        <use xlink:href="#path-1" />
      </mask>
      <use id="Mask" fill="#979797" fill-rule="nonzero" xlink:href="#path-1" />
      <polygon fill="#004D9D" mask="url(#mask-2)" points="-2 0 22 0 22 24 -2 24" />
    </g>
  </g>
</svg>