<svg xmlns="http://www.w3.org/2000/svg" xmlns:xlink="http://www.w3.org/1999/xlink" width="25" height="24"
  viewBox="0 0 25 24">
  <defs>
    <path
      d="M17.812 20.384c.646.437 1.273.447 1.91-.005.473-.334.995-.526 1.58-.526.4 0 .691.266.699.633.006.369-.275.647-.675.655-.313.005-.59.102-.842.28-.483.343-1.006.561-1.61.58a2.812 2.812 0 0 1-1.788-.555c-.387-.283-.82-.387-1.278-.255-.235.067-.456.202-.663.338a2.826 2.826 0 0 1-1.686.472c-.602-.02-1.125-.247-1.606-.59a1.4 1.4 0 0 0-1.225-.221 2.06 2.06 0 0 0-.573.28c-1.1.723-2.199.731-3.29-.005-.64-.432-1.253-.43-1.892.002-1.098.742-2.208.728-3.304-.014-.286-.194-.587-.317-.94-.315-.318.002-.495-.21-.628-.469v-.343c.193-.43.54-.515.972-.462.544.065 1.01.3 1.449.606.365.253.772.308 1.188.191.222-.062.429-.191.627-.316 1.057-.67 2.116-.684 3.16.003.428.282.867.464 1.37.316.243-.07.47-.208.684-.347.7-.456 1.459-.585 2.256-.368.318.085.63.242.904.427.654.441 1.276.448 1.932.005 1.083-.73 2.185-.727 3.269.003zM13.322 0c.37.172.49.466.478.866-.022.665-.007 1.332-.007 1.997v.23c.641 0 1.262.003 1.882 0 .248 0 .464.078.58.296.076.138.112.312.113.47.007 2.105.006 4.21 0 6.314 0 .173.042.26.215.327.62.24 1.23.502 1.845.756.496.206.623.501.43 1.007-.574 1.51-1.152 3.02-1.727 4.529l-.057.155c.367.213.716.45 1.094.629.47.222.949.183 1.391-.103.369-.236.73-.483 1.172-.56.21-.037.425-.064.638-.064a.636.636 0 0 1 .631.631.631.631 0 0 1-.612.647c-.37.005-.68.132-.979.332-1.093.732-2.196.734-3.287 0-.639-.432-1.253-.436-1.893-.003-1.089.738-2.196.738-3.285.003-.64-.433-1.254-.434-1.893-.002-1.09.738-2.196.736-3.285 0-.633-.427-1.243-.438-1.876-.009-1.113.755-2.231.741-3.34-.014a1.584 1.584 0 0 0-.92-.304c-.32.001-.496-.21-.63-.469v-.344c.194-.428.54-.513.972-.462.552.066 1.018.314 1.468.617.416.28.882.326 1.33.128.401-.176.767-.43 1.152-.652l-.06-.161c-.578-1.523-1.157-3.045-1.734-4.569-.17-.452-.037-.761.41-.946.641-.265 1.281-.53 1.924-.789.124-.049.171-.112.17-.25-.007-.794-.003-1.588-.003-2.382V3.79c.001-.36.203-.623.527-.685a.858.858 0 0 1 .17-.012h1.882v-.232c0-.665.016-1.331-.007-1.997-.013-.4.107-.693.479-.865h4.641zm-2.974 9.862-5.826 2.4c.578 1.521 1.145 3.017 1.718 4.511.018.049.08.106.129.115.462.086.847.329 1.235.576.526.335 1.06.325 1.6.013.367-.212.741-.413 1.144-.636V9.862zm1.308 0v6.996l.975.513c.188.098.37.227.572.283.417.114.82.06 1.19-.188.356-.24.717-.477 1.152-.552.14-.024.197-.095.245-.22.42-1.116.847-2.23 1.272-3.345l.416-1.09a9446.33 9446.33 0 0 1-5.822-2.397zm3.42-5.463H6.936v5.465c.085-.03.152-.052.218-.08 1.156-.474 2.314-.946 3.466-1.431a.924.924 0 0 1 .764-.002c.974.41 1.954.808 2.932 1.21.248.102.497.203.762.31V4.4zM11 5.673c.348 0 .64.289.645.637a.65.65 0 0 1-.652.651.651.651 0 0 1-.635-.647.65.65 0 0 1 .642-.641zm2.585 0a.65.65 0 0 1 .638.644.65.65 0 0 1-.639.644.65.65 0 0 1-.648-.655.651.651 0 0 1 .65-.633zm-5.168 0a.652.652 0 0 1 .65.633.65.65 0 0 1-.628.655.651.651 0 0 1-.66-.644c0-.348.29-.641.638-.644zm4.077-4.371h-2.98v1.783h2.98V1.302z"
      id="a" />
  </defs>
  <g transform="translate(1.289 1)" fill="none" fill-rule="evenodd">
    <mask id="b" fill="currentColor">
      <use xlink:href="#a" />
    </mask>
    <use fill="currentColor" xlink:href="#a" />
    <!-- <path fill="currentColor" mask="url(#b)" d="M-1-1h24v24H-1z" /> -->
  </g>
</svg>