<svg xmlns="http://www.w3.org/2000/svg" width="25" height="24" viewBox="0 0 25 24">
  <g fill="none" fill-rule="evenodd">
    <path
      d="M12.582 1c6.075 0 11 4.925 11 11s-4.925 11-11 11c-6.076 0-11-4.925-11-11s4.924-11 11-11zm0 1.8a9.2 9.2 0 1 0 0 18.4 9.2 9.2 0 0 0 0-18.4z"
      fill="currentColor" fill-rule="nonzero" />
    <g transform="translate(7.582 8)" fill="currentColor">
      <circle cx="1.19" cy="1.19" r="1.19" />
      <circle cx="8.81" cy="1.19" r="1.19" />
    </g>
    <path
      d="M18.582 13c-.237 3.356-2.833 6-6 6-3.168 0-5.764-2.644-6-6h12zm-2.323 1.8H8.904l.056.11c.712 1.323 1.989 2.21 3.425 2.284l.197.006c1.515 0 2.876-.907 3.62-2.29l.057-.11z"
      fill="currentColor" fill-rule="nonzero" />
  </g>
</svg>