<svg xmlns="http://www.w3.org/2000/svg" xmlns:xlink="http://www.w3.org/1999/xlink" width="25" height="24"
  viewBox="0 0 25 24">
  <defs>
    <path
      d="M12.557 1c1.187.001 2.32.006 3.414.015 1.706.015 3.126 1.35 3.236 3.039.078 1.21.146 2.42.214 3.63.031.552.061 1.104.093 1.654l.108 1.887c.086 1.528.173 3.056.27 4.585.082 1.34-.754 2.416-2.035 2.613-.252.04-.506.032-.783.02a9.454 9.454 0 0 0-.181-.006l.029.036 2.838 3.47c.187.227.258.396.236.559-.02.162-.126.304-.356.476l-.03.022h-.346l-.034-.034-.213-.215c-.162-.164-.33-.331-.483-.51-.093-.111-.172-.149-.314-.149-4.146.005-8.295.005-12.44 0a.358.358 0 0 0-.316.148c-.155.185-.329.358-.496.526l-.2.201-.032.033H4.39l-.03-.02c-.225-.168-.336-.314-.355-.474-.023-.163.051-.337.236-.562l2.824-3.453.027-.033h-.073c-.21.002-.408.003-.604-.005-1.14-.04-2.11-.868-2.257-1.924-.058-.422-.034-.856-.01-1.277l.013-.226c.049-.978.107-1.957.165-2.934l.182-3.16c.074-1.33.15-2.658.233-3.987l.01-.163c.029-.483.06-.983.19-1.454.372-1.331 1.671-2.304 3.088-2.314 1.069-.007 2.092-.011 3.078-.013zm3.907 19.278h-.623c-2.872 0-5.745 0-8.616.003-.122 0-.151.016-.155.02-.163.18-.316.37-.479.573l-.06.074h10.938l-.024-.03a15.671 15.671 0 0 0-.46-.554.29.29 0 0 0-.17-.08c-.234-.009-.467-.006-.704-.007zm-4.463-1.816-3.338.001c-.054 0-.1.016-.11.024-.17.195-.335.397-.51.612l-.034.042h7.982l-.031-.038c-.176-.216-.34-.419-.513-.616a.213.213 0 0 0-.107-.024c-2.228-.002-4.452 0-6.677 0zM5.583 10.36a.7.7 0 0 0-.004.048l-.065 1.104a1502.43 1502.43 0 0 0-.224 3.882l-.006.098c-.017.278-.035.565.005.833.09.605.631 1.012 1.348 1.013 3.579 0 7.15.001 10.724-.001.43 0 .787-.134 1.03-.386.248-.256.367-.618.342-1.047l-.238-4.287c-.016-.321-.039-.642-.06-.965l-.018-.288c-.578.113-1.14.345-1.8.74-1.402.841-2.708 1.941-4.11 3.463-.168.182-.33.272-.5.274-.173 0-.337-.087-.508-.263l-.184-.193c-.344-.357-.7-.727-1.064-1.071-1.116-1.05-2.041-1.759-3.001-2.298-.606-.34-1.14-.551-1.667-.656zm1.93 3.14a1.498 1.498 0 0 1 1.033 2.57c-.281.278-.647.43-1.031.43H7.49A1.517 1.517 0 0 1 6 14.998a1.475 1.475 0 0 1 .442-1.057 1.489 1.489 0 0 1 1.06-.441zm8.985 0c.401 0 .78.158 1.065.444.285.286.44.662.437 1.06a1.513 1.513 0 0 1-1.496 1.496h-.011c-.393 0-.765-.156-1.048-.439a1.499 1.499 0 0 1 1.048-2.561zm-8.995 1.149a.353.353 0 0 0-.346.344.342.342 0 0 0 .336.347c.194 0 .35-.147.358-.332a.35.35 0 0 0-.1-.246.35.35 0 0 0-.248-.113zm9 0a.348.348 0 0 0-.247.106.346.346 0 0 0-.107.247.353.353 0 0 0 .348.338.341.341 0 0 0 .345-.341.352.352 0 0 0-.34-.35zM12.729 2.12h-.696c-1.631 0-3.257.007-3.843.013-1.27.01-2.2.894-2.265 2.145-.037.727-.08 1.453-.125 2.18-.024.413-.05.825-.073 1.238-.03.496-.054.99-.081 1.499l-.001.03c1.043.192 2.05.648 3.073 1.39.681.492 1.334 1.042 1.966 1.575l.286.24c.267.224.513.46.774.712l.28.268.096-.098c1.045-1.07 2.042-1.929 3.045-2.626.882-.615 1.656-1.02 2.435-1.27.192-.061.39-.11.58-.156l.178-.045-.001-.024-.081-1.373c-.07-1.185-.139-2.368-.202-3.553-.065-1.218-.957-2.092-2.172-2.125-.517-.014-1.793-.02-3.173-.02zm.292 1.882.117.01c1.112.146 2.223.296 3.335.447.368.05.525.266.526.721v1.549L17 7.776l-.001.524c-.001.247-.058.433-.17.552a.483.483 0 0 1-.368.148.73.73 0 0 1-.11-.008c-1.094-.15-2.187-.296-3.281-.44-.477-.063-.614-.249-.615-.829V4.761c0-.31.05-.503.162-.623.11-.121.272-.16.52-.127zm-2.11.005c.207-.023.362.019.47.134.106.116.161.3.162.548.003.379.002.758.002 1.138V7.783c-.002.503-.147.7-.555.757-.577.081-1.154.158-1.732.235l-.963.128c-.213.028-.427.055-.64.088a.89.89 0 0 1-.12.009.474.474 0 0 1-.364-.147C7.058 8.734 7 8.551 7 8.306a860.906 860.906 0 0 1 0-3.142c.001-.438.162-.655.52-.704 1.13-.152 2.26-.304 3.39-.454zm-.355 1.24L7.99 5.59v2.154l2.566-.343V5.246zm2.888 0v2.155l2.562.342V5.59l-2.562-.345z"
      id="a" />
  </defs>
  <g transform="translate(.458)" fill="none" fill-rule="evenodd">
    <mask id="b" fill="#fff">
      <use xlink:href="#a" />
    </mask>
    <path fill="currentColor" mask="url(#b)" d="M0 0h24v24H0z" />
  </g>
</svg>