<svg xmlns="http://www.w3.org/2000/svg" width="16" height="16" viewBox="0 0 16 16">
  <g fill="none" fill-rule="evenodd">
    <g fill="currentColor">
      <path
        d="M6 2.89h4.001c0-.12.002-.233 0-.345-.003-.27-.162-.427-.44-.428-.342-.002-.684 0-1.025 0-.702 0-1.404-.002-2.105 0-.262 0-.425.16-.43.412-.002.116 0 .233 0 .36zm2 .788H3.32c-.053 0-.107-.002-.16.004-.275.03-.439.31-.32.55.088.18.247.23.44.229 3.148-.002 6.295-.001 9.442-.002.04 0 .08.002.12-.003a.396.396 0 0 0 .36-.387.395.395 0 0 0-.36-.387c-.053-.006-.107-.003-.16-.003H8zm4.366 1.57h-8.73l.044.536.197 2.334.23 2.697c.074.877.146 1.755.224 2.632.028.324.167.438.503.438h6.333c.045 0 .09.002.133-.002a.39.39 0 0 0 .358-.332c.011-.073.017-.146.023-.22.049-.57.096-1.141.144-1.711l.231-2.71c.067-.787.135-1.573.201-2.36l.11-1.302zm-7.78 9.419c-.256-.062-.495-.154-.689-.34-.26-.25-.347-.564-.375-.906-.111-1.35-.228-2.697-.342-4.046l-.277-3.307c-.022-.264-.043-.528-.074-.79a.19.19 0 0 0-.094-.13c-.472-.21-.772-.671-.731-1.138.046-.542.397-.956.923-1.078a1.63 1.63 0 0 1 .358-.033c.586-.003 1.173-.002 1.76-.002H5.2V2.55c.008-.709.52-1.212 1.248-1.214a486.07 486.07 0 0 1 3.107 0c.726.002 1.24.505 1.247 1.214v.347h.155c.6 0 1.2-.002 1.8 0 .587.004 1.031.325 1.196.858a1.148 1.148 0 0 1-.652 1.374c-.087.037-.129.076-.136.174-.074.908-.153 1.816-.23 2.723l-.23 2.684c-.075.89-.156 1.78-.221 2.672-.033.436-.152.825-.548 1.071-.156.097-.346.144-.52.214h-6.83z" />
      <path
        d="M6.2 12.992c.009.199-.282.424-.603.311-.178-.063-.275-.187-.287-.359-.061-.869-.12-1.738-.179-2.607l-.226-3.305c-.013-.193-.03-.385-.038-.578A.422.422 0 0 1 5.297 6a.433.433 0 0 1 .456.42l.377 5.496.07 1.076M9.764 12.832l.284-4.113.155-2.298c.021-.311.32-.5.617-.389.184.069.285.223.272.437-.03.48-.064.958-.097 1.438l-.167 2.433c-.06.869-.118 1.738-.18 2.607-.016.232-.219.396-.462.386-.244-.01-.423-.186-.426-.42v-.08h.004M8.433 9.68v3.209c-.001.316-.29.518-.596.42-.182-.06-.28-.182-.3-.353-.006-.045-.003-.09-.003-.135v-6.31c0-.323.166-.511.45-.511.284 0 .449.188.449.512V9.68" />
    </g>
  </g>
</svg>