<svg xmlns="http://www.w3.org/2000/svg" viewBox="0 0 24 24">
  <path fill="currentColor" fill-rule="evenodd" d="M6.34 22.35c1.744.95 3.71 1.446 5.707 1.446h.008C18.64 23.796 24 18.46 24 11.906c0-3.175-1.24-6.17-3.497-8.417A11.908 11.908 0 0012.047 0C5.463 0 .103 5.336.103 11.89c0 2.098.552 4.141 1.594 5.949L0 24l6.34-1.65zm5.715-20.338a9.865 9.865 0 017.019 2.9 9.831 9.831 0 012.905 6.994c0 5.454-4.46 9.886-9.932 9.886h-.008a9.98 9.98 0 01-5.052-1.375l-.363-.213-3.758.983 1.002-3.647-.236-.377a9.822 9.822 0 01-1.516-5.257c.008-5.462 4.46-9.894 9.94-9.894zm.245 14.797c.71.307 1.271.488 1.705.63.719.227 1.366.196 1.88.117.576-.086 1.768-.715 2.012-1.415.253-.691.253-1.288.174-1.414-.071-.126-.276-.197-.568-.346-.3-.15-1.769-.864-2.037-.966-.277-.103-.474-.15-.671.149-.198.298-.774.966-.948 1.163-.173.196-.347.22-.647.07-.3-.149-1.263-.463-2.4-1.477-.884-.786-1.484-1.76-1.658-2.059-.174-.298-.016-.455.134-.605.135-.133.3-.346.45-.518.15-.173.198-.3.3-.496.103-.196.048-.369-.023-.518-.071-.15-.671-1.611-.924-2.208-.245-.582-.49-.503-.671-.511-.174-.008-.371-.008-.569-.008-.197 0-.52.07-.797.37C6.766 7.064 6 7.78 6 9.241c0 1.461 1.066 2.876 1.216 3.072.134.213 2.084 3.214 5.084 4.495z" />
</svg>
