<?xml version="1.0" encoding="UTF-8"?>
<svg xmlns="http://www.w3.org/2000/svg" xmlns:xlink="http://www.w3.org/1999/xlink" width="300px" height="59px" viewBox="0 0 300 59" version="1.1">
<g id="surface1">
<path style=" stroke:none;fill-rule:nonzero;fill:rgb(99.215686%,68.627451%,8.627451%);fill-opacity:1;" d="M 30.667969 58.15625 L 20.050781 58.15625 L 6.578125 7.632812 L 0.644531 7.035156 L 0.644531 0 L 24 0 L 24 7.035156 L 17.738281 7.949219 L 24.554688 36.234375 L 25.796875 41.414062 L 26.039062 41.414062 L 27.511719 36.234375 L 38.996094 0 L 47.570312 0 L 59.492188 37.230469 L 60.882812 41.824219 L 61.125 41.824219 L 62.324219 37.230469 L 69.375 7.949219 L 62.761719 7.035156 L 62.761719 0 L 85.691406 0 L 85.691406 7.035156 L 80.140625 7.632812 L 66.503906 58.15625 L 55.980469 58.15625 L 44.972656 24.167969 L 43.582031 19.371094 L 43.339844 19.371094 L 41.785156 24.332031 Z M 102.71875 59 C 98.4375 59 95.035156 57.847656 92.511719 55.539062 C 89.980469 53.238281 88.714844 50.101562 88.714844 46.132812 C 88.714844 43.414062 89.453125 41.03125 90.933594 38.988281 C 92.402344 36.933594 94.578125 35.320312 97.464844 34.148438 C 100.351562 32.976562 103.90625 32.390625 108.136719 32.390625 L 113.839844 32.390625 L 113.839844 29.199219 C 113.839844 27.117188 113.234375 25.433594 112.027344 24.140625 C 110.8125 22.851562 108.996094 22.207031 106.585938 22.207031 C 105.332031 22.207031 104.207031 22.359375 103.207031 22.671875 C 102.210938 22.980469 101.3125 23.410156 100.515625 23.964844 L 99.601562 29.675781 L 91.230469 29.675781 L 91.070312 18.457031 C 93.328125 17.175781 95.773438 16.136719 98.40625 15.335938 C 101.035156 14.535156 103.976562 14.136719 107.222656 14.136719 C 112.859375 14.136719 117.308594 15.449219 120.574219 18.078125 C 123.839844 20.703125 125.476562 24.453125 125.476562 29.324219 L 125.476562 47.125 C 125.476562 47.71875 125.484375 48.296875 125.503906 48.871094 C 125.511719 49.445312 125.554688 49.992188 125.636719 50.519531 L 130.144531 51.160156 L 130.144531 58.15625 L 115.714844 58.15625 C 115.417969 57.410156 115.121094 56.609375 114.832031 55.753906 C 114.542969 54.902344 114.328125 54.050781 114.191406 53.207031 C 112.8125 54.960938 111.183594 56.363281 109.304688 57.417969 C 107.4375 58.472656 105.242188 59 102.71875 59 Z M 105.820312 50.371094 C 107.445312 50.371094 108.988281 50.003906 110.449219 49.265625 C 111.910156 48.539062 113.039062 47.578125 113.839844 46.375 L 113.839844 39.546875 L 108.09375 39.546875 C 105.546875 39.546875 103.613281 40.132812 102.296875 41.304688 C 100.980469 42.476562 100.324219 43.886719 100.324219 45.53125 C 100.324219 47.078125 100.808594 48.265625 101.78125 49.101562 C 102.75 49.949219 104.097656 50.371094 105.820312 50.371094 Z M 177.667969 58.15625 L 134.007812 58.15625 L 134.007812 51.160156 L 140.199219 49.960938 L 140.199219 8.234375 L 134.007812 7.035156 L 134.007812 0 L 158.859375 0 L 158.859375 7.035156 L 151.835938 8.234375 L 151.835938 49.210938 L 168.222656 49.210938 L 168.78125 40.707031 L 177.667969 40.707031 Z M 202.710938 59 C 198.464844 59 194.8125 58.0625 191.753906 56.191406 C 188.699219 54.328125 186.355469 51.742188 184.734375 48.433594 C 183.109375 45.117188 182.296875 41.300781 182.296875 36.984375 L 182.296875 36.152344 C 182.296875 31.863281 183.109375 28.058594 184.734375 24.742188 C 186.355469 21.433594 188.6875 18.839844 191.726562 16.957031 C 194.777344 15.078125 198.410156 14.136719 202.628906 14.136719 C 206.914062 14.136719 210.570312 15.078125 213.597656 16.957031 C 216.628906 18.839844 218.957031 21.429688 220.582031 24.730469 C 222.195312 28.027344 223.003906 31.835938 223.003906 36.152344 L 223.003906 36.984375 C 223.003906 41.300781 222.195312 45.117188 220.582031 48.433594 C 218.957031 51.742188 216.628906 54.328125 213.597656 56.191406 C 210.570312 58.0625 206.941406 59 202.710938 59 Z M 202.710938 50.042969 C 204.734375 50.042969 206.386719 49.5 207.664062 48.40625 C 208.9375 47.316406 209.878906 45.796875 210.496094 43.839844 C 211.105469 41.878906 211.410156 39.59375 211.410156 36.984375 L 211.410156 36.152344 C 211.410156 33.589844 211.105469 31.332031 210.496094 29.378906 C 209.878906 27.421875 208.925781 25.890625 207.636719 24.785156 C 206.351562 23.683594 204.679688 23.132812 202.628906 23.132812 C 200.644531 23.132812 198.996094 23.683594 197.691406 24.785156 C 196.390625 25.890625 195.445312 27.421875 194.84375 29.378906 C 194.246094 31.332031 193.945312 33.589844 193.945312 36.152344 L 193.945312 36.984375 C 193.945312 39.59375 194.246094 41.882812 194.84375 43.855469 C 195.445312 45.828125 196.390625 47.355469 197.691406 48.433594 C 198.996094 49.507812 200.671875 50.042969 202.710938 50.042969 Z M 249.246094 59 C 244.988281 59 241.335938 58.0625 238.289062 56.191406 C 235.230469 54.328125 232.890625 51.742188 231.265625 48.433594 C 229.640625 45.117188 228.828125 41.300781 228.828125 36.984375 L 228.828125 36.152344 C 228.828125 31.863281 229.640625 28.058594 231.265625 24.742188 C 232.890625 21.433594 235.222656 18.839844 238.261719 16.957031 C 241.308594 15.078125 244.945312 14.136719 249.164062 14.136719 C 253.445312 14.136719 257.101562 15.078125 260.132812 16.957031 C 263.164062 18.839844 265.488281 21.429688 267.113281 24.730469 C 268.730469 28.027344 269.535156 31.835938 269.535156 36.152344 L 269.535156 36.984375 C 269.535156 41.300781 268.730469 45.117188 267.113281 48.433594 C 265.488281 51.742188 263.164062 54.328125 260.132812 56.191406 C 257.101562 58.0625 253.472656 59 249.246094 59 Z M 249.246094 50.042969 C 251.265625 50.042969 252.914062 49.5 254.183594 48.40625 C 255.464844 47.316406 256.410156 45.796875 257.027344 43.839844 C 257.636719 41.878906 257.941406 39.59375 257.941406 36.984375 L 257.941406 36.152344 C 257.941406 33.589844 257.636719 31.332031 257.027344 29.378906 C 256.410156 27.421875 255.460938 25.890625 254.171875 24.785156 C 252.882812 23.683594 251.214844 23.132812 249.164062 23.132812 C 247.175781 23.132812 245.527344 23.683594 244.222656 24.785156 C 242.925781 25.890625 241.976562 27.421875 241.378906 29.378906 C 240.777344 31.332031 240.480469 33.589844 240.480469 36.152344 L 240.480469 36.984375 C 240.480469 39.59375 240.777344 41.882812 241.378906 43.855469 C 241.976562 45.828125 242.925781 47.355469 244.222656 48.433594 C 245.527344 49.507812 247.203125 50.042969 249.246094 50.042969 Z M 291.355469 59 C 287.34375 59 284.253906 57.890625 282.085938 55.671875 C 279.917969 53.464844 278.832031 49.964844 278.832031 45.175781 L 278.832031 23.132812 L 272.898438 23.132812 L 272.898438 14.941406 L 278.832031 14.941406 L 278.832031 4.363281 L 290.441406 4.363281 L 290.441406 14.941406 L 298.375 14.941406 L 298.375 23.132812 L 290.441406 23.132812 L 290.441406 45.136719 C 290.441406 46.808594 290.789062 48.007812 291.488281 48.734375 C 292.199219 49.453125 293.164062 49.8125 294.386719 49.8125 C 295.023438 49.8125 295.714844 49.761719 296.457031 49.660156 C 297.203125 49.570312 297.839844 49.472656 298.375 49.363281 L 299.371094 57.800781 C 298.171875 58.144531 296.875 58.433594 295.476562 58.660156 C 294.078125 58.886719 292.707031 59 291.355469 59 Z M 291.355469 59 "/>
</g>
</svg>
